<?xml version="1.0" encoding="UTF-8" standalone="no"?>
<!-- Generator: Adobe Illustrator 18.0.0, SVG Export Plug-In . SVG Version: 6.00 Build 0)  -->

<svg
   version="1.1"
   id="Capa_1"
   x="0px"
   y="0px"
   viewBox="0 0 112.196 112.196"
   style="enable-background:new 0 0 112.196 112.196;"
   xml:space="preserve"
   sodipodi:docname="linkedin.svg"
   inkscape:version="1.2.2 (b0a84865, 2022-12-01)"
   xmlns:inkscape="http://www.inkscape.org/namespaces/inkscape"
   xmlns:sodipodi="http://sodipodi.sourceforge.net/DTD/sodipodi-0.dtd"
   xmlns="http://www.w3.org/2000/svg"
   xmlns:svg="http://www.w3.org/2000/svg"><defs
   id="defs13184">
		
	</defs><sodipodi:namedview
   id="namedview13182"
   pagecolor="#505050"
   bordercolor="#eeeeee"
   borderopacity="1"
   inkscape:showpageshadow="0"
   inkscape:pageopacity="0"
   inkscape:pagecheckerboard="0"
   inkscape:deskcolor="#505050"
   showgrid="false"
   inkscape:zoom="2.1034618"
   inkscape:cx="56.335703"
   inkscape:cy="56.098"
   inkscape:window-width="1440"
   inkscape:window-height="872"
   inkscape:window-x="0"
   inkscape:window-y="0"
   inkscape:window-maximized="1"
   inkscape:current-layer="g13149" />
<g
   id="g13149">
	<path
   id="circle13143"
   style="fill:#aa336a;fill-opacity:1"
   d="M 56.097656 -0.001953125 A 56.098 56.098 0 0 0 0 56.097656 A 56.098 56.098 0 0 0 56.097656 112.19531 A 56.098 56.098 0 0 0 112.19531 56.097656 A 56.098 56.098 0 0 0 56.097656 -0.001953125 z M 34.65625 23.96875 C 39.244245 23.96875 42.063344 26.979551 42.152344 30.935547 C 42.152344 34.807543 39.243402 37.90625 34.566406 37.90625 L 34.480469 37.90625 C 29.982473 37.90625 27.068359 34.807543 27.068359 30.935547 C 27.068359 26.979551 30.069255 23.96875 34.65625 23.96875 z M 74.179688 42.462891 C 83.001679 42.462891 89.615234 48.226341 89.615234 60.611328 L 89.615234 83.738281 L 76.207031 83.738281 L 76.207031 62.160156 C 76.207031 56.742162 74.271011 53.042969 69.416016 53.042969 C 65.711019 53.042969 63.509108 55.533315 62.537109 57.945312 C 62.18411 58.807312 62.09375 60.005845 62.09375 61.214844 L 62.09375 83.738281 L 48.683594 83.738281 C 48.683594 83.738281 48.863594 47.191199 48.683594 43.408203 L 62.095703 43.408203 L 62.095703 49.123047 C 63.877701 46.38105 67.054695 42.462891 74.179688 42.462891 z M 62.095703 49.123047 C 62.068703 49.168047 62.029859 49.212859 62.005859 49.255859 L 62.095703 49.255859 L 62.095703 49.123047 z M 27.865234 43.408203 L 41.269531 43.408203 L 41.269531 83.738281 L 27.865234 83.738281 L 27.865234 43.408203 z " />
	
</g>
<g
   id="g13151">
</g>
<g
   id="g13153">
</g>
<g
   id="g13155">
</g>
<g
   id="g13157">
</g>
<g
   id="g13159">
</g>
<g
   id="g13161">
</g>
<g
   id="g13163">
</g>
<g
   id="g13165">
</g>
<g
   id="g13167">
</g>
<g
   id="g13169">
</g>
<g
   id="g13171">
</g>
<g
   id="g13173">
</g>
<g
   id="g13175">
</g>
<g
   id="g13177">
</g>
<g
   id="g13179">
</g>
</svg>
