<?xml version="1.0" standalone="no"?>
<!DOCTYPE svg PUBLIC "-//W3C//DTD SVG 20010904//EN"
 "http://www.w3.org/TR/2001/REC-SVG-20010904/DTD/svg10.dtd">
<svg version="1.0" xmlns="http://www.w3.org/2000/svg"
 width="500.000000pt" height="500.000000pt" viewBox="0 0 500.000000 500.000000"
 preserveAspectRatio="xMidYMid meet">
<metadata>
Created by potrace 1.14, written by Peter Selinger 2001-2017
</metadata>
<g transform="translate(0.000000,500.000000) scale(0.100000,-0.100000)"
fill="#000000" stroke="none">
<path d="M0 2500 l0 -2500 2500 0 2500 0 0 2500 0 2500 -2500 0 -2500 0 0
-2500z m2090 65 l0 -1085 -35 0 -35 0 0 1085 0 1085 35 0 35 0 0 -1085z m2150
589 c55 -114 100 -211 100 -215 0 -5 -6 -9 -13 -9 -15 0 -220 407 -212 421 4
5 11 9 16 9 5 0 55 -93 109 -206z m-1650 31 l0 -165 95 0 c78 0 95 -3 95 -15
0 -12 -19 -15 -115 -15 l-115 0 0 180 c0 173 1 180 20 180 19 0 20 -7 20 -165z
m410 135 c0 -25 -4 -30 -25 -30 -21 0 -25 5 -25 30 0 25 4 30 25 30 21 0 25
-5 25 -30z m-637 -272 c-60 -60 -73 -69 -79 -54 -5 13 8 32 49 74 l57 57 -56
56 c-35 36 -54 62 -49 69 5 8 31 -11 79 -59 l71 -71 -72 -72z m635 85 c3 -113
3 -113 27 -113 16 0 25 -6 25 -15 0 -12 -15 -15 -75 -15 -60 0 -75 3 -75 15 0
9 9 15 25 15 25 0 25 0 25 95 0 95 0 95 -25 95 -19 0 -25 5 -25 21 0 18 5 20
48 17 l47 -3 3 -112z m212 92 l0 -24 25 24 c18 19 35 25 67 25 78 -1 98 -35
98 -171 0 -82 -1 -89 -20 -89 -18 0 -20 7 -20 84 0 47 -4 96 -10 110 -19 50
-96 42 -125 -13 -9 -19 -15 -57 -15 -106 0 -68 -2 -75 -20 -75 -19 0 -20 7
-20 130 0 123 1 130 20 130 15 0 20 -7 20 -25z m300 -62 c0 -109 12 -137 61
-141 27 -2 40 3 59 23 22 23 25 37 28 116 4 80 6 89 23 89 18 0 19 -9 19 -130
0 -123 -1 -130 -20 -130 -14 0 -20 7 -20 22 0 21 0 21 -26 -3 -35 -33 -104
-34 -136 -1 -21 20 -23 34 -26 132 -4 106 -3 110 17 110 20 0 21 -5 21 -87z
m357 60 c-3 -16 2 -37 11 -51 l16 -24 22 28 c20 25 21 29 7 39 -26 19 -5 35
48 35 42 0 49 -3 49 -20 0 -12 -7 -20 -17 -20 -10 0 -32 -21 -50 -46 l-32 -46
32 -44 c18 -23 41 -44 52 -46 11 -2 21 -11 23 -20 3 -15 -5 -18 -52 -18 -42 0
-56 4 -56 14 0 8 5 18 10 21 6 4 2 18 -11 37 l-22 30 -18 -23 c-13 -16 -17
-33 -13 -51 6 -28 5 -28 -51 -28 -48 0 -56 3 -53 17 2 9 13 20 25 23 12 3 36
24 53 48 l30 42 -32 45 c-18 24 -41 44 -50 45 -11 0 -18 8 -18 20 0 17 7 20
51 20 50 0 51 -1 46 -27z m-3298 -217 c28 -30 51 -61 51 -68 0 -8 -27 -40 -60
-73 -57 -56 -61 -58 -77 -42 -16 16 -15 20 29 64 l47 48 -44 47 c-29 30 -43
52 -39 62 11 29 41 17 93 -38z m301 -165 c0 -26 -19 -31 -110 -31 -91 0 -110
5 -110 31 0 17 9 19 110 19 101 0 110 -2 110 -19z m3985 -240 c89 -179 102
-211 90 -221 -13 -11 -31 20 -119 201 -58 117 -102 217 -100 221 13 21 32 -7
129 -201z m-2365 134 c0 -51 -3 -65 -15 -65 -11 0 -15 12 -15 45 l0 45 -40 0
-41 0 3 -142 3 -143 28 -3 c15 -2 27 -9 27 -18 0 -11 -17 -14 -80 -14 -64 0
-80 3 -80 15 0 10 10 15 30 15 l30 0 0 145 0 145 -34 0 c-34 0 -35 -1 -38 -42
-2 -30 -8 -43 -18 -43 -11 0 -16 15 -18 63 l-3 62 131 0 130 0 0 -65z m720
-10 l0 -74 25 24 c18 19 35 25 67 25 78 -1 98 -35 98 -171 0 -82 -1 -89 -20
-89 -18 0 -20 7 -20 84 0 47 -4 96 -10 110 -19 50 -96 42 -125 -13 -9 -19 -15
-57 -15 -106 0 -68 -2 -75 -20 -75 -19 0 -20 7 -20 180 0 173 1 180 20 180 18
0 20 -7 20 -75z m508 13 c-2 -48 -7 -63 -18 -63 -10 0 -16 13 -18 43 -3 41 -4
42 -38 42 l-34 0 0 -145 0 -145 30 0 c20 0 30 -5 30 -15 0 -12 -16 -15 -80
-15 -64 0 -80 3 -80 15 0 10 10 15 30 15 l30 0 0 145 0 145 -40 0 -40 0 0 -45
c0 -33 -4 -45 -15 -45 -12 0 -15 14 -15 65 l0 65 130 0 131 0 -3 -62z m202 32
c0 -25 -4 -30 -25 -30 -21 0 -25 5 -25 30 0 25 4 30 25 30 21 0 25 -5 25 -30z
m-1175 -92 c29 -23 55 -74 55 -108 0 -19 -6 -20 -110 -20 -60 0 -110 -3 -110
-6 0 -12 24 -50 39 -61 22 -17 80 -16 111 2 33 19 52 19 48 -1 -4 -22 -65 -54
-101 -54 -45 0 -95 26 -117 62 -39 65 -19 161 42 194 38 21 111 17 143 -8z
m290 6 c23 -15 25 -15 25 0 0 9 7 16 15 16 12 0 15 -13 15 -55 0 -43 -3 -55
-15 -55 -9 0 -20 11 -25 24 -11 30 -47 56 -78 56 -13 0 -37 -13 -53 -29 -61
-62 -24 -171 58 -171 33 0 72 15 83 31 3 4 12 4 20 -1 12 -7 10 -13 -9 -34
-48 -51 -147 -43 -195 15 -48 56 -30 170 32 203 36 20 97 20 127 0z m883 -101
c3 -113 3 -113 27 -113 16 0 25 -6 25 -15 0 -12 -15 -15 -75 -15 -60 0 -75 3
-75 15 0 9 9 15 25 15 25 0 25 0 25 95 0 95 0 95 -25 95 -19 0 -25 5 -25 21 0
18 5 20 48 17 l47 -3 3 -112z m207 107 c4 -7 12 -7 25 0 10 5 37 10 60 10 114
0 161 -174 67 -244 -29 -21 -96 -28 -129 -12 -16 7 -18 2 -18 -48 0 -53 -1
-56 -25 -56 l-25 0 0 173 c0 96 3 177 7 180 10 10 31 8 38 -3z m460 -2 c14 -6
24 -18 23 -25 -4 -18 -5 -18 -55 -3 -59 18 -126 0 -121 -32 3 -23 26 -33 100
-43 63 -8 100 -38 96 -78 -4 -38 -41 -67 -95 -74 -50 -7 -153 22 -153 42 0 23
16 26 54 10 45 -19 116 -19 142 -1 33 25 7 49 -71 63 -89 17 -115 34 -115 77
0 32 18 57 50 69 28 10 119 7 145 -5z m-2160 -442 c56 -24 72 -81 35 -129
l-20 -26 25 -25 c17 -18 25 -36 25 -61 0 -78 -41 -105 -160 -105 l-80 0 0 180
0 180 70 0 c39 0 86 -6 105 -14z m1190 -16 c0 -20 -5 -25 -25 -25 -20 0 -26 6
-28 28 -3 26 -1 28 25 25 22 -2 28 -8 28 -28z m305 -135 l0 -165 25 0 c16 0
25 -6 25 -15 0 -12 -15 -15 -75 -15 -60 0 -75 3 -75 15 0 9 9 15 25 15 l25 0
0 145 0 145 -25 0 c-18 0 -25 5 -25 20 0 17 7 20 50 20 l50 0 0 -165z m-1283
45 c5 -20 5 -20 30 0 18 14 41 20 74 20 43 0 49 -3 49 -21 0 -18 -4 -20 -31
-14 -41 9 -86 -11 -104 -46 -8 -15 -15 -55 -15 -89 l0 -60 30 0 c20 0 30 -5
30 -15 0 -12 -16 -15 -80 -15 -63 0 -80 3 -80 14 0 9 12 16 28 18 l27 3 3 93
3 92 -31 0 c-23 0 -30 4 -30 20 0 17 7 20 46 20 37 0 47 -4 51 -20z m424 -9
c28 -29 29 -32 29 -130 0 -94 -1 -101 -20 -101 -11 0 -20 7 -20 15 0 12 -8 11
-40 -6 -30 -16 -52 -20 -81 -16 -55 7 -79 31 -79 79 0 54 40 78 133 78 59 0
67 2 67 19 0 48 -59 70 -125 49 -38 -13 -47 -13 -56 -2 -16 20 42 43 109 44
46 0 58 -4 83 -29z m298 18 c22 -8 30 -16 27 -26 -3 -8 -6 -16 -6 -18 0 -1
-19 4 -42 12 -64 22 -138 4 -138 -32 0 -14 39 -29 105 -40 81 -14 116 -50 94
-99 -6 -12 -19 -28 -30 -34 -64 -40 -239 -9 -209 38 8 12 14 12 45 -3 41 -20
125 -23 143 -5 7 7 12 20 12 30 0 18 -28 28 -115 43 -91 15 -114 93 -40 133
26 15 113 15 154 1z m251 -104 l0 -115 30 0 c20 0 30 -5 30 -15 0 -12 -16 -15
-80 -15 -64 0 -80 3 -80 15 0 10 10 15 30 15 l30 0 0 95 0 95 -30 0 c-23 0
-30 4 -30 20 0 17 7 20 50 20 l50 0 0 -115z"/>
<path d="M2634 2660 c-21 -8 -54 -47 -54 -62 0 -5 38 -8 85 -8 92 0 102 7 68
49 -21 24 -68 35 -99 21z"/>
<path d="M4160 2657 c-23 -11 -25 -19 -28 -87 -3 -85 6 -100 68 -100 69 0 110
82 76 149 -25 47 -70 61 -116 38z"/>
<path d="M2290 2165 l0 -56 62 3 c55 3 64 6 77 29 13 24 13 29 -2 53 -16 23
-24 26 -77 26 l-60 0 0 -55z"/>
<path d="M2290 2000 l0 -73 61 6 c69 6 99 26 99 67 0 48 -21 63 -94 68 l-66 4
0 -72z"/>
<path d="M2920 2007 c-50 -25 -32 -77 27 -77 59 0 103 32 103 76 0 18 -94 19
-130 1z"/>
</g>
</svg>
