<?xml version="1.0" encoding="UTF-8" standalone="no"?>
<!-- Created with Inkscape (http://www.inkscape.org/) -->

<svg
   version="1.1"
   id="svg9700"
   width="1400"
   height="1236"

   viewBox="0 0 3000 2438"
   sodipodi:docname="Twitter.svg"
   inkscape:version="1.2.2 (b0a84865, 2022-12-01)"
   xmlns:inkscape="http://www.inkscape.org/namespaces/inkscape"
   xmlns:sodipodi="http://sodipodi.sourceforge.net/DTD/sodipodi-0.dtd"
   xmlns="http://www.w3.org/2000/svg"
   xmlns:svg="http://www.w3.org/2000/svg">
  <defs
     id="defs9704" />
  <sodipodi:namedview
     id="namedview9702"
     pagecolor="#505050"
     bordercolor="#eeeeee"
     borderopacity="1"
     inkscape:showpageshadow="0"
     inkscape:pageopacity="0"
     inkscape:pagecheckerboard="0"
     inkscape:deskcolor="#505050"
     showgrid="false"
     inkscape:zoom="0.19360131"
     inkscape:cx="1707.1165"
     inkscape:cy="1379.1229"
     inkscape:window-width="1440"
     inkscape:window-height="872"
     inkscape:window-x="1440"
     inkscape:window-y="0"
     inkscape:window-maximized="1"
     inkscape:current-layer="g9706" />
  <g
     inkscape:groupmode="layer"
     inkscape:label="Image"
     id="g9706">
    <path
       id="path10317"
       style="fill:#aa336a;fill-opacity:1"
       d="M 22.660156,11.496094 V 2182.5038 c 18.43338,1.8513 47.27394,4.2514 67.839843,5.2441 27.399861,1.3227 112.794651,0.678 135.000001,-1.0195 48.87071,-3.7359 82.72293,-7.6317 122,-14.041 194.88256,-31.8015 378.17909,-109.4679 537.11914,-227.5859 10.51559,-7.8147 19.3751,-14.6215 19.6875,-15.127 0.3286,-0.5317 -7.51745,-1.4209 -18.61914,-2.1094 -84.79402,-5.2593 -160.45793,-25.3477 -236.1875,-62.709 -143.91532,-71.0005 -252.99988,-192.994 -307.97266,-344.4179 -3.6497,-10.0532 -6.48778,-19.0207 -6.30859,-19.9278 0.44729,-2.2644 4.6152,-2.0804 25.28125,1.1114 35.5838,5.4956 46.6991,6.2417 92.5,6.2129 44.43573,-0.028 53.1184,-0.5787 87.9082,-5.5645 23.11734,-3.3129 63.0918,-11.4555 63.0918,-12.8515 0,-0.3274 -7.08751,-2.3244 -15.75,-4.4376 -85.5332,-20.8653 -168.93658,-62.0473 -237.75,-117.3964 -23.86599,-19.1962 -59.92356,-53.7441 -79.31641,-75.9942 -88.77067,-101.8498 -141.74241,-228.166 -151.14062,-360.41589 -1.30416,-18.35199 -1.3706,-53.49229 -0.10352,-54.27539 0.5162,-0.31903 12.10393,4.95975 25.75196,11.73047 55.55194,27.55903 110.48012,45.58374 169.80859,55.72461 19.64415,3.35772 47.72128,6.64961 65,7.62109 l 12,0.67578 -12,-8.76953 C 317.04334,897.80866 266.93611,845.61373 225.43555,782.66016 170.2135,698.89201 137.05769,604.36605 126.44141,500.42188 c -2.14379,-20.98992 -2.99005,-73.84051 -1.53321,-95.76172 5.5791,-83.94956 25.72999,-160.149 61.5625,-232.8086 14.3108,-29.01879 20.15088,-39.1914 22.50391,-39.1914 1.03046,0 4.2981,3.09917 7.64258,7.25 10.43723,12.95365 40.70765,47.82145 57.31445,66.01757 200.52595,219.71687 452.14017,384.30972 732.06826,478.88282 117.3855,39.65842 233.417,65.67738 358,80.27539 38.813,4.54791 108.8369,10.10327 110.1211,8.73633 0.3412,-0.36325 -0.8575,-7.93325 -2.6621,-16.82032 -4.1903,-20.63591 -7.9468,-46.83477 -10.086,-70.34179 -2.3007,-25.28335 -2.3016,-76.69948 0,-102 7.4197,-81.62284 28.3231,-154.90579 64.6075,-226.5 86.1083,-169.90732 244.8517,-290.902862 429.5195,-327.388676 36.7885,-7.268492 53.8242,-8.807092 108.5,-9.794922 47.3254,-0.855019 82.646,1.090203 114.5,6.304688 124.3797,20.3609 239.4041,78.68409 329.6055,167.12891 10.2368,10.03749 19.1616,18.25 19.832,18.25 2.2678,0 34.4436,-7.08143 54.5625,-12.00977 110.8955,-27.16496 223.6413,-72.58534 321.8789,-129.667968 5.9837,-3.476967 11.4962,-6.322266 12.25,-6.322266 2.3139,0 1.567,4.212843 -3.041,17.13086 -24.5431,68.802924 -57.8289,128.387114 -102.9922,184.369144 -26.2263,32.50878 -63.1911,69.00746 -97.0957,95.86914 -13.0724,10.35693 -36.6407,27.25265 -48.4727,34.74804 -5.4574,3.45718 -7.8602,5.48383 -6.7519,5.69727 2.4365,0.46923 40.2675,-5.24138 65.7246,-9.92188 69.7189,-12.81837 138.0988,-31.65936 205.3281,-56.57617 20.6183,-7.64163 49.4638,-19.3368 58.1895,-23.43359 V 11.496094 Z M 2987.5175,312.54297 v 17.57226 c 4.3705,-6.38174 10.3663,-14.83326 10.7051,-16.02148 0.3031,-1.06322 0.863,-2.69286 1.2461,-3.62109 0.58,-1.40557 0.191,-1.62375 -2.3301,-1.30469 -1.665,0.21072 -4.3477,1.06707 -5.9629,1.90234 -0.3633,0.18786 -3.1097,1.21512 -3.6582,1.47266 z m 0,17.57226 c -9.9414,14.51613 -24.6879,35.03072 -39.375,53.91407 -32.2498,41.46385 -60.112,72.73893 -103.0742,115.70117 -49.5689,49.56884 -91.7012,86.06972 -141.9766,123 l -7.4063,5.44141 -0.1718,72.99414 c -0.1777,75.90598 -0.7989,92.4566 -5.5352,147.49414 -14.4718,168.16674 -53.4705,335.96984 -115.2734,495.99994 -113.9634,295.0918 -300.3419,552.7073 -538.2051,743.9101 -203.1017,163.2604 -439.569,274.4917 -697.2031,329.9336 H 2987.5175 Z M 1339.2968,2418.5038 H 562.58398 c 98.43278,21.9374 198.85381,35.756 282.41602,38.1895 18.97498,0.5526 35.4,1.1838 36.5,1.4043 3.6783,0.7372 144.6295,-0.3417 172.9999,-1.3243 62.6177,-2.1688 145.3487,-11.5565 222.5,-25.2461 20.9943,-3.7251 41.5741,-8.5639 62.2969,-13.0234 z m -776.71282,0 C 528.73201,2410.9593 495.11519,2402.5138 462.5,2393.1601 306.3347,2348.3733 165.6246,2285.9365 22.660156,2198.3417 v 220.1621 z M 22.660156,2198.3417 v -15.8379 c -3.068516,-0.3082 -9.103843,-0.6045 -11.292968,-0.873 -4.4730762,-0.5488 -8.8441422,-0.7241 -9.7128912,-0.3907 -2.713967,1.0414 0.611995,4.6734 9.1289062,9.9707 3.966089,2.4668 7.91473,4.7032 11.876953,7.1309 z M 1270.1718,986.66014 c -74.0482,0 -132.1924,0.3812 -132.0059,0.8653 0.1833,0.4757 77.9591,104.64276 172.834,231.48036 94.8749,126.8375 172.6352,231.46 172.8008,232.4941 0.2112,1.3189 -50.3384,56.6128 -169.3731,185.2695 -93.3213,100.8649 -171.7401,185.5282 -174.2636,188.1407 l -4.5899,4.75 h 37.4766 37.4746 l 150.6562,-162.75 c 82.8608,-89.5125 152.0588,-164.0862 153.7735,-165.7207 2.4569,-2.342 3.4698,-2.7505 4.7773,-1.9258 0.9126,0.5756 57.033,75.1355 124.7129,165.6875 l 123.0547,164.6386 132.7266,0.035 132.7246,0.035 -56.2657,-75.25 c -30.9469,-41.3875 -83.4742,-111.6251 -116.7265,-156.084 -33.2523,-44.459 -90.2919,-120.724 -126.7539,-169.4766 -47.024,-62.8746 -66.209,-89.2608 -66,-90.7734 0.1661,-1.2017 70.3499,-77.7807 160.7949,-175.4473 88.2749,-95.3232 160.859,-173.91076 161.2988,-174.64056 0.6587,-1.0929 -5.7197,-1.3281 -36.1875,-1.3281 h -36.9863 l -141.1582,152.49996 c -79.2425,85.6101 -141.8834,152.4928 -142.8125,152.4824 -1.0244,-0.011 -45.0932,-58.1218 -115.6504,-152.5 L 1402.5097,986.66014 Z m -20.3047,55.00006 h 62.4883 62.4883 l 272.7109,364.6288 c 149.9903,200.5447 272.7634,365.3574 272.8281,366.25 0.1072,1.4786 -5.446,1.6444 -62.4531,1.8789 l -62.5684,0.2578 -272.4316,-364.2227 c -149.8367,-200.3228 -272.5721,-365.2516 -272.7461,-366.5077 z" />
  </g>
</svg>
